<svg viewBox="0 0 500 500" xmlns="http://www.w3.org/2000/svg" xmlns:xlink="http://www.w3.org/1999/xlink" width="100%" id="blobSvg">
  <path id="blob" d="M410,280Q435,310,404,324.5Q373,339,370,374.5Q367,410,327.5,388.5Q288,367,269,409Q250,451,229,416Q208,381,170.5,395.5Q133,410,122,380.5Q111,351,127.5,317.5Q144,284,100,267Q56,250,36,212Q16,174,40,144.5Q64,115,87.5,86.5Q111,58,152.5,67.5Q194,77,222,66.5Q250,56,279.5,63Q309,70,324,99Q339,128,390.5,119Q442,110,460.5,143Q479,176,432,213Q385,250,410,280Z" fill="#d1d8e0"></path>
</svg>